<svg width="1600" height="520" viewBox="0 0 1600 520" fill="none" xmlns="http://www.w3.org/2000/svg">
  <defs>
    <linearGradient id="bg" x1="0" y1="0" x2="1600" y2="520" gradientUnits="userSpaceOnUse">
      <stop stop-color="#F8FBFC"/>
      <stop offset="1" stop-color="#EEF4F6"/>
    </linearGradient>
    <linearGradient id="total" x1="0" y1="0" x2="1" y2="1">
      <stop stop-color="#8D2B1F"/>
      <stop offset="1" stop-color="#C1452D"/>
    </linearGradient>
    <linearGradient id="barRed" x1="0" y1="0" x2="1" y2="0">
      <stop stop-color="#F58C72"/>
      <stop offset="1" stop-color="#CF4A32"/>
    </linearGradient>
    <linearGradient id="barOrange" x1="0" y1="0" x2="1" y2="0">
      <stop stop-color="#F6B974"/>
      <stop offset="1" stop-color="#D17A19"/>
    </linearGradient>
    <filter id="shadow" x="-20%" y="-20%" width="140%" height="160%">
      <feDropShadow dx="0" dy="8" stdDeviation="12" flood-opacity="0.12"/>
    </filter>
  </defs>

  <rect x="0" y="0" width="1600" height="520" fill="url(#bg)"/>

  <rect x="28" y="24" width="1544" height="472" rx="20" fill="#FFFFFF" stroke="#D9E5EA" filter="url(#shadow)"/>

  <text x="64" y="78" font-family="'IBM Plex Sans', Arial" font-size="20" font-weight="700" fill="#173241">Панель проблем карточек</text>
  <text x="64" y="108" font-family="'IBM Plex Sans', Arial" font-size="14" fill="#5B6E78">Клик по карточке — фильтр таблицы по проблеме</text>

  <rect x="64" y="132" width="360" height="132" rx="16" fill="url(#total)"/>
  <text x="92" y="176" font-family="'IBM Plex Sans', Arial" font-size="16" font-weight="600" fill="#FCE8E4">Всего проблем</text>
  <text x="92" y="232" font-family="'Space Grotesk', Arial" font-size="58" font-weight="700" fill="#FFFFFF">181</text>
  <text x="238" y="232" font-family="'IBM Plex Sans', Arial" font-size="18" font-weight="600" fill="#FCE8E4">из 396 строк</text>

  <rect x="450" y="132" width="1058" height="132" rx="16" fill="#F7FAFB" stroke="#DCE7EC"/>
  <text x="476" y="165" font-family="'IBM Plex Sans', Arial" font-size="14" font-weight="600" fill="#264454">Структура проблем</text>
  <rect x="476" y="184" width="992" height="26" rx="13" fill="#E9EFF2"/>
  <rect x="476" y="184" width="992" height="26" rx="13" fill="url(#barRed)"/>
  <text x="476" y="245" font-family="'IBM Plex Sans', Arial" font-size="13" fill="#5B6E78">Рич — 181 (100%) • Рек — 0 • Видео — 0 • Автоплей — 0 • Тэги — 0</text>

  <!-- KPI cards -->
  <g>
    <rect x="64" y="292" width="284" height="176" rx="16" fill="#FFF6F4" stroke="#F0C9C2"/>
    <text x="88" y="328" font-family="'IBM Plex Sans', Arial" font-size="16" font-weight="700" fill="#8D2B1F">Рич</text>
    <text x="88" y="390" font-family="'Space Grotesk', Arial" font-size="56" font-weight="700" fill="#B43C28">181</text>
    <text x="220" y="390" font-family="'IBM Plex Sans', Arial" font-size="16" font-weight="600" fill="#7C4B44">45.7%</text>
    <text x="88" y="430" font-family="'IBM Plex Sans', Arial" font-size="13" fill="#8D5A52">Нет rich-контента</text>
    <rect x="88" y="442" width="236" height="10" rx="5" fill="#F2D6D1"/>
    <rect x="88" y="442" width="108" height="10" rx="5" fill="#CB513B"/>
  </g>

  <g>
    <rect x="364" y="292" width="284" height="176" rx="16" fill="#F5F9FA" stroke="#DDE7EC"/>
    <text x="388" y="328" font-family="'IBM Plex Sans', Arial" font-size="16" font-weight="700" fill="#1D3A4A">Рекомендации</text>
    <text x="388" y="390" font-family="'Space Grotesk', Arial" font-size="56" font-weight="700" fill="#2E4C5D">0</text>
    <text x="470" y="390" font-family="'IBM Plex Sans', Arial" font-size="16" font-weight="600" fill="#637A86">0%</text>
    <text x="388" y="430" font-family="'IBM Plex Sans', Arial" font-size="13" fill="#5B6E78">Нет проблем</text>
    <rect x="388" y="442" width="236" height="10" rx="5" fill="#E8EFF2"/>
    <rect x="388" y="442" width="0" height="10" rx="5" fill="#1A8A72"/>
  </g>

  <g>
    <rect x="664" y="292" width="284" height="176" rx="16" fill="#F5F9FA" stroke="#DDE7EC"/>
    <text x="688" y="328" font-family="'IBM Plex Sans', Arial" font-size="16" font-weight="700" fill="#1D3A4A">Видео</text>
    <text x="688" y="390" font-family="'Space Grotesk', Arial" font-size="56" font-weight="700" fill="#2E4C5D">0</text>
    <text x="770" y="390" font-family="'IBM Plex Sans', Arial" font-size="16" font-weight="600" fill="#637A86">0%</text>
    <text x="688" y="430" font-family="'IBM Plex Sans', Arial" font-size="13" fill="#5B6E78">Нет проблем</text>
    <rect x="688" y="442" width="236" height="10" rx="5" fill="#E8EFF2"/>
  </g>

  <g>
    <rect x="964" y="292" width="284" height="176" rx="16" fill="#F5F9FA" stroke="#DDE7EC"/>
    <text x="988" y="328" font-family="'IBM Plex Sans', Arial" font-size="16" font-weight="700" fill="#1D3A4A">Автоплей</text>
    <text x="988" y="390" font-family="'Space Grotesk', Arial" font-size="56" font-weight="700" fill="#2E4C5D">0</text>
    <text x="1070" y="390" font-family="'IBM Plex Sans', Arial" font-size="16" font-weight="600" fill="#637A86">0%</text>
    <text x="988" y="430" font-family="'IBM Plex Sans', Arial" font-size="13" fill="#5B6E78">Нет проблем</text>
    <rect x="988" y="442" width="236" height="10" rx="5" fill="#E8EFF2"/>
  </g>

  <g>
    <rect x="1264" y="292" width="244" height="176" rx="16" fill="#F5F9FA" stroke="#DDE7EC"/>
    <text x="1288" y="328" font-family="'IBM Plex Sans', Arial" font-size="16" font-weight="700" fill="#1D3A4A">Тэги</text>
    <text x="1288" y="390" font-family="'Space Grotesk', Arial" font-size="56" font-weight="700" fill="#2E4C5D">0</text>
    <text x="1370" y="390" font-family="'IBM Plex Sans', Arial" font-size="16" font-weight="600" fill="#637A86">0%</text>
    <text x="1288" y="430" font-family="'IBM Plex Sans', Arial" font-size="13" fill="#5B6E78">Нет проблем</text>
    <rect x="1288" y="442" width="196" height="10" rx="5" fill="#E8EFF2"/>
  </g>
</svg>
